<svg width="104" height="69" viewBox="0 0 104 69" fill="none" xmlns="http://www.w3.org/2000/svg">
<path d="M2.92783 0C-10.5722 47.5 25.9278 65.5 44.9278 68.5C28.4278 54.5 21.4278 39 19.4278 28C29.9278 48.5 45.4278 60 50.9278 61C55.4278 17.5 18.9278 0.5 2.92783 0Z" fill="url(#paint0_linear_5_58)"/>
<path d="M102.669 24.7044C97.669 51.2044 75.6691 58.2044 64.169 57.2044C71.169 52.2044 84.169 40.7044 86.6691 35.7044C70.6691 47.7044 63.6691 51.2044 59.1691 52.7044C64.6691 18.2044 91.6691 22.7044 102.669 24.7044Z" fill="url(#paint1_linear_5_58)"/>
<defs>
<linearGradient id="paint0_linear_5_58" x1="4" y1="35" x2="49" y2="35" gradientUnits="userSpaceOnUse">
<stop stop-color="#19733B"/>
<stop offset="1" stop-color="#91C341"/>
</linearGradient>
<linearGradient id="paint1_linear_5_58" x1="59.5" y1="52" x2="104.628" y2="32.4487" gradientUnits="userSpaceOnUse">
<stop stop-color="#1C6B3B"/>
<stop offset="1" stop-color="#ADCD42"/>
</linearGradient>
</defs>
</svg>
